<mxfile host="app.diagrams.net" agent="Mozilla/5.0 (Macintosh; Intel Mac OS X 10_15_7) AppleWebKit/537.36 (KHTML, like Gecko) Chrome/140.0.0.0 Safari/537.36" version="28.2.7">
  <diagram name="第 1 页" id="yOQn3qr9IzSCKK9Pa8ZQ">
    <mxGraphModel dx="1826" dy="693" grid="0" gridSize="10" guides="1" tooltips="1" connect="1" arrows="1" fold="1" page="0" pageScale="1" pageWidth="827" pageHeight="1169" math="0" shadow="0">
      <root>
        <mxCell id="0" />
        <mxCell id="1" parent="0" />
        <mxCell id="PesbsimkXeiB0BAIFn3Y-1" value="page_elements" style="rounded=1;whiteSpace=wrap;html=1;" vertex="1" parent="1">
          <mxGeometry x="280" y="80" width="120" height="40" as="geometry" />
        </mxCell>
        <mxCell id="PesbsimkXeiB0BAIFn3Y-2" value="page_elements_&lt;div&gt;wlw_de&lt;/div&gt;" style="rounded=1;whiteSpace=wrap;html=1;" vertex="1" parent="1">
          <mxGeometry x="80" y="180" width="120" height="40" as="geometry" />
        </mxCell>
        <mxCell id="PesbsimkXeiB0BAIFn3Y-3" value="page_elements_&lt;div&gt;ep_fr&lt;/div&gt;" style="rounded=1;whiteSpace=wrap;html=1;" vertex="1" parent="1">
          <mxGeometry x="240" y="180" width="120" height="40" as="geometry" />
        </mxCell>
        <mxCell id="PesbsimkXeiB0BAIFn3Y-14" style="edgeStyle=orthogonalEdgeStyle;rounded=0;orthogonalLoop=1;jettySize=auto;html=1;exitX=0.25;exitY=0;exitDx=0;exitDy=0;entryX=1;entryY=0.5;entryDx=0;entryDy=0;dashed=1;dashPattern=8 4 1 4;" edge="1" parent="1" source="PesbsimkXeiB0BAIFn3Y-4" target="PesbsimkXeiB0BAIFn3Y-1">
          <mxGeometry relative="1" as="geometry" />
        </mxCell>
        <mxCell id="PesbsimkXeiB0BAIFn3Y-4" value="page_elements_&lt;div&gt;ep_it&lt;/div&gt;" style="rounded=1;whiteSpace=wrap;html=1;" vertex="1" parent="1">
          <mxGeometry x="400" y="180" width="120" height="40" as="geometry" />
        </mxCell>
        <mxCell id="PesbsimkXeiB0BAIFn3Y-6" value="&lt;font style=&quot;font-size: 24px;&quot;&gt;...&lt;/font&gt;" style="text;html=1;whiteSpace=wrap;strokeColor=none;fillColor=none;align=center;verticalAlign=middle;rounded=0;" vertex="1" parent="1">
          <mxGeometry x="560" y="180" width="60" height="30" as="geometry" />
        </mxCell>
        <mxCell id="PesbsimkXeiB0BAIFn3Y-9" style="edgeStyle=orthogonalEdgeStyle;rounded=0;orthogonalLoop=1;jettySize=auto;html=1;entryX=0;entryY=0.5;entryDx=0;entryDy=0;" edge="1" parent="1" source="PesbsimkXeiB0BAIFn3Y-7" target="PesbsimkXeiB0BAIFn3Y-1">
          <mxGeometry relative="1" as="geometry" />
        </mxCell>
        <mxCell id="PesbsimkXeiB0BAIFn3Y-10" style="edgeStyle=orthogonalEdgeStyle;rounded=0;orthogonalLoop=1;jettySize=auto;html=1;exitX=0.75;exitY=1;exitDx=0;exitDy=0;entryX=0.5;entryY=0;entryDx=0;entryDy=0;" edge="1" parent="1" source="PesbsimkXeiB0BAIFn3Y-7" target="PesbsimkXeiB0BAIFn3Y-4">
          <mxGeometry relative="1" as="geometry">
            <Array as="points">
              <mxPoint x="-35" y="140" />
              <mxPoint x="460" y="140" />
            </Array>
          </mxGeometry>
        </mxCell>
        <mxCell id="PesbsimkXeiB0BAIFn3Y-11" style="edgeStyle=orthogonalEdgeStyle;rounded=0;orthogonalLoop=1;jettySize=auto;html=1;exitX=0.5;exitY=1;exitDx=0;exitDy=0;entryX=0.5;entryY=0;entryDx=0;entryDy=0;" edge="1" parent="1" source="PesbsimkXeiB0BAIFn3Y-7" target="PesbsimkXeiB0BAIFn3Y-3">
          <mxGeometry relative="1" as="geometry">
            <Array as="points">
              <mxPoint x="-50" y="150" />
              <mxPoint x="300" y="150" />
            </Array>
          </mxGeometry>
        </mxCell>
        <mxCell id="PesbsimkXeiB0BAIFn3Y-12" style="edgeStyle=orthogonalEdgeStyle;rounded=0;orthogonalLoop=1;jettySize=auto;html=1;exitX=0.25;exitY=1;exitDx=0;exitDy=0;entryX=0.5;entryY=0;entryDx=0;entryDy=0;" edge="1" parent="1" source="PesbsimkXeiB0BAIFn3Y-7" target="PesbsimkXeiB0BAIFn3Y-2">
          <mxGeometry relative="1" as="geometry">
            <Array as="points">
              <mxPoint x="-65" y="160" />
            </Array>
          </mxGeometry>
        </mxCell>
        <mxCell id="PesbsimkXeiB0BAIFn3Y-7" value="Write" style="text;html=1;whiteSpace=wrap;strokeColor=none;fillColor=none;align=center;verticalAlign=middle;rounded=0;" vertex="1" parent="1">
          <mxGeometry x="-80" y="85" width="60" height="30" as="geometry" />
        </mxCell>
        <mxCell id="PesbsimkXeiB0BAIFn3Y-13" style="edgeStyle=orthogonalEdgeStyle;rounded=0;orthogonalLoop=1;jettySize=auto;html=1;entryX=0.75;entryY=0;entryDx=0;entryDy=0;dashed=1;dashPattern=8 4 1 4;" edge="1" parent="1" source="PesbsimkXeiB0BAIFn3Y-8" target="PesbsimkXeiB0BAIFn3Y-4">
          <mxGeometry relative="1" as="geometry" />
        </mxCell>
        <mxCell id="PesbsimkXeiB0BAIFn3Y-8" value="Read" style="text;html=1;whiteSpace=wrap;strokeColor=none;fillColor=none;align=center;verticalAlign=middle;rounded=0;" vertex="1" parent="1">
          <mxGeometry x="720" y="90" width="60" height="30" as="geometry" />
        </mxCell>
      </root>
    </mxGraphModel>
  </diagram>
</mxfile>
